<?xml version="1.0" encoding="UTF-8" standalone="no"?>
<!-- Created with Inkscape (http://www.inkscape.org/) -->

<svg
   xmlns:dc="http://purl.org/dc/elements/1.1/"
   xmlns:cc="http://creativecommons.org/ns#"
   xmlns:rdf="http://www.w3.org/1999/02/22-rdf-syntax-ns#"
   xmlns:svg="http://www.w3.org/2000/svg"
   xmlns="http://www.w3.org/2000/svg"
   xmlns:sodipodi="http://sodipodi.sourceforge.net/DTD/sodipodi-0.dtd"
   xmlns:inkscape="http://www.inkscape.org/namespaces/inkscape"
   width="80"
   height="30"
   viewBox="0 0 21.166666 7.9374997"
   version="1.1"
   id="svg8"
   inkscape:version="0.92.2 5c3e80d, 2017-08-06"
   sodipodi:docname="waves.svg"
   inkscape:export-filename="/home/abraham/tmp/button-loader/waves.png"
   inkscape:export-xdpi="96"
   inkscape:export-ydpi="96">
  <defs
     id="defs2" />
  <sodipodi:namedview
     id="base"
     pagecolor="#ffffff"
     bordercolor="#666666"
     borderopacity="1.0"
     inkscape:pageopacity="0.0"
     inkscape:pageshadow="2"
     inkscape:zoom="5.6"
     inkscape:cx="79.934807"
     inkscape:cy="19.086271"
     inkscape:document-units="mm"
     inkscape:current-layer="layer1"
     showgrid="false"
     units="px"
     inkscape:window-width="1920"
     inkscape:window-height="1025"
     inkscape:window-x="0"
     inkscape:window-y="27"
     inkscape:window-maximized="1" />
  <metadata
     id="metadata5">
    <rdf:RDF>
      <cc:Work
         rdf:about="">
        <dc:format>image/svg+xml</dc:format>
        <dc:type
           rdf:resource="http://purl.org/dc/dcmitype/StillImage" />
        <dc:title></dc:title>
      </cc:Work>
    </rdf:RDF>
  </metadata>
  <g
     inkscape:label="Capa 1"
     inkscape:groupmode="layer"
     id="layer1"
     transform="translate(0,-289.0625)">
    <path
       style="fill:#000000;fill-opacity:0.2745098;stroke:none;stroke-width:0.26458332px;stroke-linecap:butt;stroke-linejoin:miter;stroke-opacity:1"
       d="m 0,295.67707 c 1.9299376,-0.20172 3.0589785,-0.82745 3.4745038,-1.83092 l 3.5413211,1.36975 c 1.9135493,-0.0462 3.0397431,-0.80109 4.0758601,-1.63702 l 3.140417,1.87088 c 1.982035,-0.28266 2.731529,-1.02753 3.307461,-1.83748 l 3.627104,2.06479 V 297 H 0 Z"
       id="path4504"
       inkscape:connector-curvature="0"
       sodipodi:nodetypes="cccccccccc" />
    <g
       id="g4627"
       style="fill:#000000;fill-opacity:0.4694534"
       transform="matrix(-1,0,0,1,22.084346,-7.5595239)">
      <path
         style="fill:#000000;fill-opacity:0.4694534;stroke:#000000;stroke-width:0.0304479px;stroke-linecap:butt;stroke-linejoin:miter;stroke-opacity:1"
         d="m 15.007616,294.19933 2.653317,0.88626"
         id="path4563"
         inkscape:connector-curvature="0" />
      <path
         style="fill:#000000;fill-opacity:0.4694534;stroke:#000000;stroke-width:0.0304479px;stroke-linecap:butt;stroke-linejoin:miter;stroke-opacity:1"
         d="m 15.638322,294.19662 2.283592,0.80469"
         id="path4563-3"
         inkscape:connector-curvature="0"
         sodipodi:nodetypes="cc" />
      <path
         style="fill:#000000;fill-opacity:0.4694534;stroke:#000000;stroke-width:0.0304479px;stroke-linecap:butt;stroke-linejoin:miter;stroke-opacity:1"
         d="m 16.182035,294.22924 2.163976,0.73945"
         id="path4563-3-6"
         inkscape:connector-curvature="0"
         sodipodi:nodetypes="cc" />
      <path
         style="fill:#000000;fill-opacity:0.4694534;stroke:#000000;stroke-width:0.0304479px;stroke-linecap:butt;stroke-linejoin:miter;stroke-opacity:1"
         d="m 16.633315,294.23468 2.011736,0.68508"
         id="path4563-3-6-7"
         inkscape:connector-curvature="0"
         sodipodi:nodetypes="cc" />
      <path
         style="fill:#000000;fill-opacity:0.4694534;stroke:#000000;stroke-width:0.0304479px;stroke-linecap:butt;stroke-linejoin:miter;stroke-opacity:1"
         d="m 17.095472,294.25371 1.794251,0.64158"
         id="path4563-3-6-7-5"
         inkscape:connector-curvature="0"
         sodipodi:nodetypes="cc" />
      <g
         id="g4617"
         style="fill:#000000;fill-opacity:0.4694534">
        <path
           inkscape:connector-curvature="0"
           id="path4502"
           d="m 12.696873,294.63182 c -0.168741,-0.005 -0.410952,-0.0143 -0.538247,-0.0213 -0.260201,-0.0142 -0.383428,-0.0237 -1.340237,-0.1035 -0.181604,-0.0151 -0.55364,-0.0588 -0.64859,-0.0761 -0.0348,-0.006 -0.03499,-0.007 -0.03499,-0.07 0,-0.0604 0.0012,-0.0633 0.02422,-0.0583 0.157195,0.0347 0.575653,0.0482 0.734708,0.0236 0.213796,-0.033 0.386448,-0.0988 0.559778,-0.21326 0.107487,-0.071 0.343866,-0.30534 0.384493,-0.38123 0.103815,-0.1939 0.08376,-0.40844 -0.09319,-0.99703 -0.129894,-0.43206 -0.158115,-0.59271 -0.136072,-0.77458 0.02673,-0.22054 0.09903,-0.39849 0.205091,-0.50481 0.12647,-0.12678 0.257795,-0.13957 0.331061,-0.0322 0.04192,0.0614 0.04184,0.097 -4.6e-4,0.20201 -0.09891,0.2456 -0.09572,0.45543 0.01016,0.66994 0.04215,0.0854 0.06613,0.11773 0.148256,0.19995 0.209378,0.20963 0.440123,0.31483 1.00223,0.45694 0.860229,0.21747 2.221397,0.44767 3.245634,0.5489 0.398265,0.0394 0.635861,0.0545 0.963463,0.0613 0.456064,0.009 0.737937,-0.0166 0.916149,-0.0848 0.09082,-0.0348 0.187075,-0.12864 0.238433,-0.23256 0.03697,-0.0748 0.04025,-0.0888 0.03934,-0.16828 -5.76e-4,-0.0551 -0.0076,-0.102 -0.01898,-0.12869 -0.02899,-0.0677 -0.01232,-0.0569 0.03459,0.0224 0.05332,0.0901 0.103812,0.23902 0.119186,0.35147 0.01655,0.12104 0.01429,0.28277 -0.005,0.35678 -0.0686,0.26339 -0.34496,0.45883 -0.836958,0.59188 -0.563941,0.15252 -1.890177,0.29339 -3.301813,0.35072 -0.358882,0.0146 -1.62508,0.0214 -2.002283,0.0108 z"
           style="fill:#000000;fill-opacity:0.4694534;stroke:none;stroke-width:0.14911585;stroke-miterlimit:4;stroke-dasharray:none;stroke-opacity:1" />
        <path
           inkscape:connector-curvature="0"
           id="path4504-5"
           d="m 16.229269,292.8272 c -1.378419,-0.66592 -2.340906,-0.77749 -2.780359,-0.32229 l -0.07275,0.0754 -0.07921,-0.0772 c -0.236597,-0.23061 -0.310404,-0.5181 -0.231967,-0.90356 0.02876,-0.14135 0.0816,-0.31268 0.168972,-0.54796 0.06267,-0.16877 0.07706,-0.19828 0.104924,-0.21528 0.09425,-0.0575 0.680502,-0.30852 1.001142,-0.42868 0.655161,-0.24551 1.230823,-0.40102 2.131462,-0.57578 0.353434,-0.0686 1.157735,-0.22799 1.209392,-0.23969 0.01683,-0.004 -0.03158,0.0513 -0.145328,0.16549 -0.720679,0.72337 -1.155088,1.43926 -1.276176,2.10309 -0.03333,0.1827 -0.03319,0.47642 3.45e-4,0.64396 0.0199,0.0995 0.07362,0.27316 0.114676,0.37064 0.0044,0.0104 0.0038,0.0184 -0.0013,0.0179 -0.0051,-5.8e-4 -0.06978,-0.0302 -0.143787,-0.066 z"
           style="fill:#000000;fill-opacity:0.4694534;stroke:none;stroke-width:0.14911585;stroke-miterlimit:4;stroke-dasharray:none;stroke-opacity:1" />
      </g>
    </g>
    <path
       style="fill:#000000;fill-opacity:0.2745098;stroke:none;stroke-width:0.26458332px;stroke-linecap:butt;stroke-linejoin:miter;stroke-opacity:1"
       d="m 21.166667,295.67707 c 1.929938,-0.20172 3.058979,-0.82745 3.474504,-1.83092 l 3.541321,1.36975 c 1.913549,-0.0462 3.039743,-0.80109 4.07586,-1.63702 l 3.140417,1.87088 c 1.982035,-0.28266 2.731529,-1.02753 3.307461,-1.83748 l 3.627104,2.06479 V 297 H 21.166667 Z"
       id="path4504-6"
       inkscape:connector-curvature="0"
       sodipodi:nodetypes="cccccccccc" />
  </g>
</svg>
